<?xml version="1.0" standalone="no"?>
<!DOCTYPE svg PUBLIC "-//W3C//DTD SVG 20010904//EN" "http://www.w3.org/TR/2001/REC-SVG-20010904/DTD/svg10.dtd">
<svg xmlns="http://www.w3.org/2000/svg" version="1.0" width="240.000000pt" height="240.000000pt" viewBox="0 0 240.000000 240.000000" preserveAspectRatio="xMidYMid meet">
<metadata>
Created by potrace 1.16, written by Peter Selinger 2001-2019
<meta name="Producer" content="Online-Convert"/></metadata>
<g transform="translate(0.000000,240.000000) scale(0.100000,-0.100000)" fill="#000000" stroke="none">
<path d="M0 1200 l0 -1200 1200 0 1200 0 0 1200 0 1200 -1200 0 -1200 0 0 -1200z m1122 893 c25 -22 23 -60 -4 -77 -13 -7 -46 -17 -74 -20 -134 -17 -271 -86 -374 -189 -117 -116 -174 -241 -191 -416 -6 -58 -13 -116 -15 -128 -6 -32 -49 -41 -76 -17 -19 18 -20 27 -15 129 10 206 77 356 226 505 108 108 203 165 332 199 129 35 165 37 191 14z m351 -14 c124 -35 220 -93 323 -194 151 -149 222 -305 231 -510 5 -102 4 -111 -15 -129 -42 -37 -89 0 -83 65 5 54 -21 196 -50 269 -85 222 -294 388 -523 416 -88 11 -121 50 -79 97 15 16 26 18 71 12 29 -4 85 -16 125 -26z m-325 -261 c16 -16 15 -63 0 -76 -7 -6 -39 -15 -70 -21 -188 -34 -328 -201 -328 -392 0 -59 -26 -88 -68 -73 -38 13 -48 73 -29 169 31 151 126 280 256 349 99 52 211 72 239 44z m327 -37 c144 -70 252 -217 274 -373 10 -71 1 -136 -21 -149 -41 -26 -78 7 -78 70 0 190 -140 358 -328 392 -68 13 -82 23 -82 58 0 44 17 54 89 47 45 -4 87 -17 146 -45z m-150 -299 c52 -26 89 -66 114 -122 19 -41 21 -65 21 -273 0 -246 -3 -265 -57 -335 -14 -19 -49 -45 -78 -58 -119 -55 -225 -38 -310 49 -70 72 -75 95 -75 344 0 169 3 219 17 258 20 61 84 127 144 148 60 23 171 17 224 -11z m-477 -535 c6 -7 15 -41 21 -76 19 -119 86 -212 188 -262 40 -20 64 -24 143 -24 84 0 102 3 152 28 99 48 170 150 183 262 4 33 12 66 17 73 13 15 50 16 66 0 19 -19 14 -112 -10 -175 -29 -78 -56 -119 -115 -175 -58 -53 -111 -83 -186 -102 -45 -11 -52 -17 -55 -40 l-3 -26 75 0 c66 0 77 -3 90 -22 20 -29 20 -34 -4 -58 -19 -19 -33 -20 -206 -20 -109 0 -193 4 -205 10 -22 12 -26 59 -7 78 7 7 42 12 88 12 l76 0 -2 27 c-1 24 -6 29 -42 35 -103 17 -220 101 -280 201 -53 88 -80 225 -50 255 16 16 53 15 66 -1z"/>
</g>
</svg>
